<?xml version="1.0" standalone="no"?>
<!DOCTYPE svg PUBLIC "-//W3C//DTD SVG 20010904//EN"
 "http://www.w3.org/TR/2001/REC-SVG-20010904/DTD/svg10.dtd">
<svg version="1.0" xmlns="http://www.w3.org/2000/svg"
 width="200.000000pt" height="200.000000pt" viewBox="0 0 200.000000 200.000000"
 preserveAspectRatio="xMidYMid meet">
<metadata>
Created by potrace 1.14, written by Peter Selinger 2001-2017
</metadata>
<g transform="translate(0.000000,200.000000) scale(0.100000,-0.100000)"
fill="#000000" stroke="none">
<path d="M590 850 l0 -90 65 0 c63 0 65 1 65 25 0 23 -4 25 -40 25 -22 0 -40
5 -40 10 0 6 14 10 31 10 26 0 30 3 27 22 -2 16 -12 25 -33 29 -27 6 -26 7 13
8 38 1 42 3 42 26 0 24 -2 25 -65 25 l-65 0 0 -90z"/>
<path d="M750 850 l0 -90 56 0 c74 0 94 12 94 55 0 18 -5 37 -11 41 -6 3 -8
15 -5 27 10 41 -10 57 -74 57 l-60 0 0 -90z m82 35 c0 -5 -5 -11 -11 -13 -6
-2 -11 4 -11 13 0 9 5 15 11 13 6 -2 11 -8 11 -13z m18 -64 c0 -5 -7 -12 -16
-15 -22 -9 -24 -8 -24 9 0 8 9 15 20 15 11 0 20 -4 20 -9z"/>
<path d="M942 928 c-7 -7 -12 -40 -12 -80 0 -56 3 -69 19 -78 30 -15 97 -12
115 6 19 19 22 134 4 152 -16 16 -110 16 -126 0z m78 -73 c0 -38 -3 -45 -20
-45 -17 0 -20 7 -20 38 0 41 6 52 27 52 9 0 13 -14 13 -45z"/>
<path d="M1122 928 c-7 -7 -12 -40 -12 -80 0 -76 10 -88 75 -88 65 0 75 12 75
88 0 40 -5 73 -12 80 -16 16 -110 16 -126 0z m86 -76 c3 -40 2 -43 -20 -40
-17 2 -24 11 -26 31 -5 39 5 59 25 55 13 -2 19 -15 21 -46z"/>
<path d="M1292 853 c3 -88 3 -88 31 -91 25 -3 27 -1 27 32 0 29 4 36 20 36 16
0 20 -7 20 -36 0 -33 2 -35 28 -32 24 3 27 8 30 44 2 29 -2 47 -14 58 -14 14
-15 22 -5 42 15 33 15 34 -14 34 -17 0 -30 -9 -42 -32 l-18 -33 -3 33 c-3 28
-7 32 -33 32 l-30 0 3 -87z"/>
</g>
</svg>
